<svg id="visual" viewBox="0 0 1920 1080" width="1920" height="1080" xmlns="http://www.w3.org/2000/svg" xmlns:xlink="http://www.w3.org/1999/xlink" version="1.1"><path d="M0 195L175 195L175 206L349 206L349 109L524 109L524 195L698 195L698 131L873 131L873 141L1047 141L1047 206L1222 206L1222 120L1396 120L1396 131L1571 131L1571 77L1745 77L1745 141L1920 141L1920 87L1920 0L1920 0L1745 0L1745 0L1571 0L1571 0L1396 0L1396 0L1222 0L1222 0L1047 0L1047 0L873 0L873 0L698 0L698 0L524 0L524 0L349 0L349 0L175 0L175 0L0 0Z" fill="#fa7268"></path><path d="M0 390L175 390L175 595L349 595L349 498L524 498L524 476L698 476L698 282L873 282L873 519L1047 519L1047 552L1222 552L1222 303L1396 303L1396 368L1571 368L1571 455L1745 455L1745 379L1920 379L1920 379L1920 85L1920 139L1745 139L1745 75L1571 75L1571 129L1396 129L1396 118L1222 118L1222 204L1047 204L1047 139L873 139L873 129L698 129L698 193L524 193L524 107L349 107L349 204L175 204L175 193L0 193Z" fill="#ea5e66"></path><path d="M0 714L175 714L175 811L349 811L349 735L524 735L524 725L698 725L698 746L873 746L873 746L1047 746L1047 692L1222 692L1222 714L1396 714L1396 757L1571 757L1571 735L1745 735L1745 865L1920 865L1920 789L1920 377L1920 377L1745 377L1745 453L1571 453L1571 366L1396 366L1396 301L1222 301L1222 550L1047 550L1047 517L873 517L873 280L698 280L698 474L524 474L524 496L349 496L349 593L175 593L175 388L0 388Z" fill="#d84a64"></path><path d="M0 800L175 800L175 908L349 908L349 800L524 800L524 811L698 811L698 843L873 843L873 908L1047 908L1047 876L1222 876L1222 779L1396 779L1396 930L1571 930L1571 887L1745 887L1745 930L1920 930L1920 897L1920 787L1920 863L1745 863L1745 733L1571 733L1571 755L1396 755L1396 712L1222 712L1222 690L1047 690L1047 744L873 744L873 744L698 744L698 723L524 723L524 733L349 733L349 809L175 809L175 712L0 712Z" fill="#c53762"></path><path d="M0 1081L175 1081L175 1081L349 1081L349 1081L524 1081L524 1081L698 1081L698 1081L873 1081L873 1081L1047 1081L1047 1081L1222 1081L1222 1081L1396 1081L1396 1081L1571 1081L1571 1081L1745 1081L1745 1081L1920 1081L1920 1081L1920 895L1920 928L1745 928L1745 885L1571 885L1571 928L1396 928L1396 777L1222 777L1222 874L1047 874L1047 906L873 906L873 841L698 841L698 809L524 809L524 798L349 798L349 906L175 906L175 798L0 798Z" fill="#b0235f"></path></svg>